<svg width="872" height="873" viewBox="0 0 872 873" fill="none" xmlns="http://www.w3.org/2000/svg">
<path d="M753.624 434.625L277.874 709.299L277.874 159.95L753.624 434.625Z" stroke="#EBEBEB"/>
<path d="M275.501 164.331C277.893 165.712 280.951 164.893 282.331 162.501C283.712 160.11 282.893 157.052 280.501 155.671C278.11 154.29 275.052 155.11 273.671 157.501C272.29 159.893 273.11 162.951 275.501 164.331Z" fill="#F2F2F2"/>
<path d="M275.501 713.331C277.893 714.712 280.951 713.893 282.331 711.501C283.712 709.11 282.893 706.052 280.501 704.671C278.11 703.29 275.052 704.11 273.671 706.501C272.29 708.893 273.11 711.951 275.501 713.331Z" fill="#F2F2F2"/>
<path d="M751.501 439.331C753.893 440.712 756.951 439.893 758.331 437.501C759.712 435.11 758.893 432.052 756.501 430.671C754.11 429.29 751.052 430.11 749.671 432.501C748.29 434.893 749.11 437.951 751.501 439.331Z" fill="#F2F2F2"/>
</svg>
